<svg width="31" height="31" viewBox="0 0 31 31" fill="none" xmlns="http://www.w3.org/2000/svg">
<path d="M11.5 13.0652V17.9348L15.5 19.5L19.5 17.9348V13.0652L15.5 11.5L11.5 13.0652Z" fill="black"/>
<path fill-rule="evenodd" clip-rule="evenodd" d="M15.5 10.963L20 12.7239V18.276L15.5 20.0368L11 18.276V12.7239L15.5 10.963ZM12 13.4064V17.5934L15.5 18.963L19 17.5934V13.4064L15.5 12.0368L12 13.4064Z" fill="black"/>
<path fill-rule="evenodd" clip-rule="evenodd" d="M15.5129 3.31055L28.1501 8.04951V22.9504L15.5001 27.6942L2.8501 22.9504V7.53147L15.5129 3.31055ZM4.1501 8.46845V22.0495L15.5001 26.3058L26.8501 22.0495V8.95041L15.4873 4.68938L4.1501 8.46845Z" fill="black"/>
</svg>
