<svg width="31" height="31" viewBox="0 0 31 31" fill="none" xmlns="http://www.w3.org/2000/svg">
<path fill-rule="evenodd" clip-rule="evenodd" d="M13.102 22.6978V22.528C13.102 21.1427 12.2465 20.0437 11.2417 19.453C10.041 18.7473 9.03041 17.709 8.33053 16.4344C7.43614 14.8056 7.10825 12.8977 7.40848 11.0382C7.70866 9.1791 8.61584 7.49646 9.96266 6.27215C11.3083 5.04891 13.0096 4.35769 14.7751 4.30346C16.5404 4.24922 18.2761 4.83469 19.6864 5.97162L20.5023 4.95954L19.6864 5.97162C21.098 7.10957 22.0977 8.73178 22.502 10.5683C22.9063 12.4053 22.687 14.3308 21.8851 16.0134C21.2462 17.3542 20.2714 18.4701 19.0821 19.2516C18.1567 19.8598 17.3874 20.9195 17.3874 22.2296V22.6978H13.102ZM13.102 23.9978V26.826C13.102 27.2126 13.4154 27.526 13.802 27.526H16.6874C17.074 27.526 17.3874 27.2126 17.3874 26.826V23.9978H13.102ZM19.7961 20.338C21.1874 19.4237 22.3195 18.1239 23.0587 16.5727C23.9858 14.6272 24.2377 12.4064 23.7716 10.2889C23.3054 8.17129 22.1501 6.28788 20.5023 4.95954C18.8546 3.6312 16.8164 2.94013 14.7351 3.00407C12.6538 3.06801 10.6582 3.88301 9.08821 5.3102C7.51822 6.73739 6.47104 8.68847 6.1251 10.831C5.77916 12.9735 6.15586 15.1749 7.19102 17.0601C8.00161 18.5364 9.1767 19.7472 10.583 20.5738C11.2898 20.9892 11.802 21.7081 11.802 22.528V26.826C11.802 27.9306 12.6975 28.826 13.802 28.826H16.6874C17.7919 28.826 18.6874 27.9306 18.6874 26.826V22.2296C18.6874 21.4538 19.1477 20.7641 19.7961 20.338Z" fill="black"/>
</svg>
