<svg width="125" height="25" viewBox="0 0 125 25" fill="none" xmlns="http://www.w3.org/2000/svg">
<mask id="path-1-outside-1_108_398" maskUnits="userSpaceOnUse" x="14" y="3" width="45" height="20" fill="black">
<rect fill="white" x="14" y="3" width="45" height="20"/>
<path d="M25.7208 7.062C25.7208 7.51987 25.633 7.94913 25.4576 8.34976C25.2822 8.7504 25.045 9.11924 24.7461 9.45628C24.4538 9.78696 24.1126 10.0859 23.7228 10.3529C23.333 10.62 22.9236 10.8458 22.4948 11.0302C22.066 11.2083 21.6274 11.3482 21.1791 11.4499C20.7372 11.5453 20.3149 11.593 19.9121 11.593H19.8536V11.4022C20.4383 11.3323 21.0036 11.1574 21.5494 10.8776C22.1017 10.5914 22.589 10.2321 23.0113 9.79968C23.4402 9.36725 23.7813 8.87758 24.0347 8.33068C24.2946 7.78378 24.4245 7.21145 24.4245 6.61367C24.4245 6.28935 24.379 5.99682 24.2881 5.73609C24.2036 5.469 24.0737 5.24324 23.8982 5.05882C23.7293 4.86804 23.5149 4.72178 23.255 4.62003C22.9951 4.51828 22.693 4.46741 22.3486 4.46741C21.6534 4.46741 21.0231 4.61367 20.4578 4.9062C19.8991 5.19237 19.402 5.57711 18.9667 6.06041C18.5314 6.53736 18.1545 7.08744 17.8361 7.71065C17.5243 8.33386 17.2644 8.98251 17.0564 9.6566C16.855 10.3307 16.7056 11.0079 16.6081 11.6884C16.5107 12.3625 16.4619 12.9889 16.4619 13.5676C16.4619 14.0318 16.4912 14.5024 16.5496 14.9793C16.6146 15.4499 16.7153 15.9046 16.8518 16.3434C16.9882 16.7822 17.1636 17.1924 17.3781 17.5739C17.5925 17.9618 17.8491 18.2989 18.148 18.5851C18.4534 18.8712 18.8042 19.097 19.2006 19.2623C19.5969 19.4277 20.0485 19.5103 20.5553 19.5103C20.9062 19.5103 21.244 19.4467 21.5689 19.3196C21.8938 19.1924 22.1992 19.0238 22.485 18.814C22.7709 18.6041 23.0276 18.3657 23.255 18.0986C23.4889 17.8315 23.6871 17.558 23.8495 17.2782L23.9665 17.3355C23.856 17.7297 23.6676 18.1176 23.4012 18.4992C23.1348 18.8808 22.8164 19.2178 22.4461 19.5103C22.0822 19.8092 21.6826 20.0477 21.2473 20.2258C20.8184 20.4102 20.3864 20.5024 19.951 20.5024C19.3728 20.5024 18.8497 20.4134 18.3819 20.2353C17.9141 20.0636 17.495 19.8219 17.1247 19.5103C16.7608 19.2051 16.4457 18.8426 16.1793 18.4229C15.9129 18.0095 15.692 17.5612 15.5165 17.0779C15.3411 16.5882 15.2112 16.0795 15.1267 15.5517C15.0422 15.0175 15 14.4833 15 13.9491C15 13.2496 15.0747 12.5183 15.2242 11.7552C15.3736 10.9921 15.5945 10.2417 15.8869 9.50397C16.1793 8.7663 16.5366 8.06677 16.959 7.40541C17.3878 6.73768 17.8784 6.15262 18.4306 5.65024C18.9829 5.14149 19.5937 4.74086 20.2629 4.44833C20.9387 4.14944 21.6664 4 22.4461 4C22.9334 4 23.3784 4.06995 23.7813 4.20986C24.1841 4.3434 24.5285 4.54054 24.8144 4.80127C25.1068 5.062 25.3309 5.38315 25.4869 5.76471C25.6428 6.1399 25.7208 6.57234 25.7208 7.062Z"/>
<path d="M38.4882 4.07631C38.5272 4.07631 38.5662 4.08903 38.6052 4.11447C38.6442 4.13355 38.6636 4.1717 38.6636 4.22893C38.6636 4.27981 38.6474 4.33386 38.6149 4.3911C38.5889 4.44833 38.5532 4.50556 38.5077 4.5628C38.4622 4.62003 38.4167 4.67409 38.3713 4.72496C38.3258 4.77583 38.29 4.82035 38.2641 4.85851C37.9132 5.25278 37.5623 5.63434 37.2115 6.00318C36.8606 6.37202 36.513 6.75676 36.1686 7.15739C35.3175 8.14308 34.5085 9.15103 33.7418 10.1812C32.9751 11.2114 32.2214 12.2607 31.4807 13.3291C32.3709 14.7091 33.3487 16.0159 34.4143 17.2496C35.4799 18.4833 36.6235 19.6153 37.845 20.6455L37.728 20.8172C37.0718 20.4293 36.4285 19.9968 35.7983 19.5199C35.1745 19.0493 34.5638 18.5437 33.966 18.0032C33.3747 17.469 32.803 16.9062 32.2507 16.3148C31.6984 15.717 31.1754 15.1065 30.6816 14.4833C29.9668 15.5262 29.2619 16.566 28.5666 17.6025C27.8714 18.6391 27.1599 19.6725 26.4322 20.7027L26.2081 20.5405C26.8708 19.4277 27.5335 18.3211 28.1963 17.221C28.8655 16.1272 29.5477 15.027 30.243 13.9205C29.5023 12.9412 28.8428 11.9459 28.2645 10.9348C28.0501 10.5596 27.8292 10.1526 27.6018 9.71383C27.3809 9.26868 27.1794 8.81399 26.9975 8.34976C26.8221 7.87917 26.6759 7.40859 26.5589 6.938C26.442 6.46105 26.3835 6 26.3835 5.55485C26.3835 5.4531 26.3965 5.31955 26.4225 5.15421C26.455 4.98887 26.5005 4.82989 26.5589 4.67727C26.6239 4.51828 26.7019 4.38156 26.7928 4.26709C26.8903 4.15262 27.0073 4.09539 27.1437 4.09539C27.2217 4.09539 27.2866 4.11765 27.3386 4.16216C27.3906 4.20032 27.4328 4.25119 27.4653 4.31479C27.5043 4.37838 27.5335 4.44515 27.553 4.5151C27.5725 4.5787 27.5888 4.63275 27.6018 4.67727C27.9591 6.04452 28.4302 7.39905 29.015 8.74086C29.5997 10.0763 30.282 11.3831 31.0616 12.6614C31.6659 11.7329 32.2799 10.8235 32.9037 9.93323C33.5339 9.03657 34.1902 8.15262 34.8724 7.2814C34.9764 7.14149 35.1031 6.97933 35.2525 6.79491C35.4084 6.60413 35.5774 6.407 35.7593 6.2035C35.9412 5.99364 36.1329 5.78378 36.3343 5.57393C36.5357 5.36407 36.7372 5.17011 36.9386 4.99205C37.1465 4.80763 37.3479 4.64547 37.5428 4.50556C37.7378 4.36566 37.9197 4.26073 38.0886 4.19078C38.1471 4.15898 38.2088 4.13355 38.2738 4.11447C38.3453 4.08903 38.4167 4.07631 38.4882 4.07631Z"/>
<path d="M58 21.5898C57.7791 21.7488 57.5387 21.8569 57.2788 21.9141C57.0254 21.9714 56.7687 22 56.5088 22C55.6187 22 54.826 21.8696 54.1308 21.6089C53.4421 21.3545 52.8345 21.0016 52.3082 20.5501C51.7885 20.0986 51.3434 19.5676 50.973 18.9571C50.6092 18.3466 50.3038 17.6884 50.0569 16.9825C49.8165 16.2766 49.6313 15.539 49.5014 14.7695C49.3714 14 49.2837 13.2337 49.2382 12.4706C49.1927 11.7011 49.1797 10.9507 49.1992 10.2194C49.2252 9.48172 49.2707 8.79809 49.3357 8.16852C49.2187 8.34022 49.0758 8.61367 48.9068 8.98887C48.7379 9.36407 48.5495 9.80286 48.3416 10.3052C48.1401 10.8076 47.929 11.3577 47.7081 11.9555C47.4872 12.5469 47.2662 13.1447 47.0453 13.7488C46.8309 14.3529 46.6197 14.9475 46.4118 15.5326C46.2104 16.1113 46.0285 16.6391 45.866 17.1161C45.7101 17.593 45.5737 17.9968 45.4567 18.3275C45.3463 18.6645 45.2748 18.8903 45.2423 19.0048C45.2163 19.0811 45.1806 19.1765 45.1351 19.2909C45.0961 19.4054 45.0441 19.5167 44.9791 19.6248C44.9207 19.7329 44.8492 19.8251 44.7647 19.9014C44.6868 19.9777 44.5958 20.0159 44.4918 20.0159C44.3749 20.0159 44.2774 19.9682 44.1995 19.8728C44.1215 19.7838 44.0565 19.6757 44.0045 19.5485C43.9591 19.4213 43.9201 19.2941 43.8876 19.1669C43.8616 19.0397 43.8421 18.938 43.8291 18.8617C43.7901 18.5946 43.7544 18.2576 43.7219 17.8506C43.6894 17.4436 43.6602 16.9921 43.6342 16.496C43.6147 16 43.5984 15.4722 43.5854 14.9126C43.5725 14.3466 43.5595 13.7806 43.5465 13.2146C43.54 12.6423 43.5335 12.0827 43.527 11.5358C43.527 10.9825 43.5237 10.4674 43.5172 9.99046C43.5172 9.50715 43.5172 9.07472 43.5172 8.69316C43.5172 8.31161 43.5172 8.00636 43.5172 7.77742C43.3743 8.09539 43.2021 8.49921 43.0007 8.98887C42.8058 9.47854 42.5913 10.0286 42.3574 10.6391C42.13 11.2496 41.8896 11.9078 41.6362 12.6137C41.3893 13.3132 41.1424 14.035 40.8955 14.779C40.6551 15.5231 40.4212 16.2734 40.1938 17.0302C39.9729 17.787 39.7747 18.5215 39.5993 19.2337C39.5798 19.2973 39.5538 19.3736 39.5213 19.4626C39.4953 19.558 39.4596 19.6471 39.4141 19.7297C39.3686 19.8124 39.3101 19.8824 39.2387 19.9396C39.1737 20.0032 39.0925 20.035 38.995 20.035C38.9041 20.035 38.8228 20.0064 38.7514 19.9491C38.6799 19.8919 38.6182 19.8219 38.5662 19.7393C38.5207 19.663 38.4817 19.5771 38.4492 19.4817C38.4232 19.3927 38.407 19.31 38.4005 19.2337C38.368 19.0747 38.3388 18.8998 38.3128 18.7091C38.2933 18.5183 38.2738 18.3211 38.2543 18.1176C38.2413 17.9205 38.2283 17.7234 38.2153 17.5262C38.2023 17.3355 38.1893 17.1574 38.1763 16.9921C38.1049 16.1208 38.0529 15.2591 38.0204 14.407C37.9944 13.5548 37.9814 12.6963 37.9814 11.8315C37.9814 10.9793 37.9944 10.1335 38.0204 9.29412C38.0529 8.45469 38.0984 7.60572 38.1568 6.74722C38.1763 6.4992 38.2056 6.22258 38.2446 5.91733C38.2835 5.60572 38.3583 5.3132 38.4687 5.03975C38.5857 4.7663 38.7514 4.53736 38.9658 4.35294C39.1867 4.16852 39.4856 4.07631 39.8624 4.07631C39.9534 4.07631 40.0314 4.09857 40.0963 4.14308C40.1613 4.18124 40.1938 4.25119 40.1938 4.35294V4.44833C40.1353 4.82989 40.0768 5.21145 40.0184 5.593C39.9599 5.9682 39.8982 6.35294 39.8332 6.74722C39.6772 8.01908 39.544 9.29094 39.4336 10.5628C39.3296 11.8283 39.2777 13.1033 39.2777 14.3879C39.2777 14.8903 39.2874 15.3863 39.3069 15.876C39.3264 16.3657 39.3621 16.8585 39.4141 17.3545C39.8624 15.9936 40.2555 14.7886 40.5934 13.7393C40.9377 12.69 41.2399 11.7711 41.4998 10.9825C41.7597 10.194 41.9773 9.52305 42.1528 8.96979C42.3347 8.41017 42.4874 7.94277 42.6108 7.56757C42.7343 7.19237 42.8317 6.89348 42.9032 6.67091C42.9747 6.44197 43.0332 6.26709 43.0786 6.14626C43.1241 6.01908 43.1566 5.92687 43.1761 5.86963C43.1956 5.8124 43.2151 5.76153 43.2346 5.71701C43.332 5.5008 43.4652 5.30684 43.6342 5.13514C43.8031 4.96343 44.0208 4.87758 44.2872 4.87758C44.4691 4.87758 44.6153 4.9221 44.7257 5.01113C44.8427 5.10016 44.9337 5.21145 44.9986 5.34499C45.0636 5.47854 45.1058 5.6248 45.1253 5.78378C45.1513 5.94277 45.1643 6.08903 45.1643 6.22258C45.1513 7.20827 45.1221 8.18442 45.0766 9.15103C45.0311 10.1113 44.9921 11.0652 44.9597 12.0127C44.9272 12.9603 44.9109 13.9014 44.9109 14.8362C44.9174 15.7711 44.9629 16.7027 45.0474 17.6312C45.3073 16.8808 45.5477 16.1749 45.7686 15.5135C45.9895 14.8458 46.1974 14.2099 46.3923 13.6057C46.5938 13.0016 46.7854 12.4197 46.9674 11.8601C47.1558 11.3005 47.3475 10.7472 47.5424 10.2003C47.7438 9.65342 47.9517 9.10652 48.1661 8.55962C48.3806 8.01272 48.6177 7.44992 48.8776 6.87122C48.9361 6.75676 49.0011 6.64229 49.0725 6.52782C49.144 6.407 49.2252 6.29889 49.3162 6.2035C49.4071 6.10811 49.5111 6.02862 49.6281 5.96502C49.745 5.90143 49.875 5.86963 50.0179 5.86963C50.2193 5.86963 50.3785 5.93323 50.4955 6.06041C50.6124 6.1876 50.7001 6.34022 50.7586 6.51828C50.8236 6.69634 50.8658 6.88394 50.8853 7.08108C50.9048 7.27186 50.9146 7.43402 50.9146 7.56757C50.9146 8.15262 50.8951 8.80127 50.8561 9.51351C50.8171 10.2194 50.7879 10.9539 50.7684 11.717C50.7554 12.4801 50.7651 13.2528 50.7976 14.035C50.8301 14.8172 50.9178 15.5739 51.0607 16.3052C51.2037 17.0366 51.4149 17.7202 51.6942 18.3561C51.9736 18.9921 52.3505 19.5453 52.8248 20.0159C53.2991 20.4928 53.8839 20.868 54.5791 21.1415C55.2808 21.4149 56.1222 21.5517 57.1034 21.5517C57.2528 21.5517 57.3957 21.539 57.5322 21.5135C57.6751 21.4944 57.8116 21.4563 57.9415 21.399L58 21.5898Z"/>
</mask>
<path d="M25.7208 7.062C25.7208 7.51987 25.633 7.94913 25.4576 8.34976C25.2822 8.7504 25.045 9.11924 24.7461 9.45628C24.4538 9.78696 24.1126 10.0859 23.7228 10.3529C23.333 10.62 22.9236 10.8458 22.4948 11.0302C22.066 11.2083 21.6274 11.3482 21.1791 11.4499C20.7372 11.5453 20.3149 11.593 19.9121 11.593H19.8536V11.4022C20.4383 11.3323 21.0036 11.1574 21.5494 10.8776C22.1017 10.5914 22.589 10.2321 23.0113 9.79968C23.4402 9.36725 23.7813 8.87758 24.0347 8.33068C24.2946 7.78378 24.4245 7.21145 24.4245 6.61367C24.4245 6.28935 24.379 5.99682 24.2881 5.73609C24.2036 5.469 24.0737 5.24324 23.8982 5.05882C23.7293 4.86804 23.5149 4.72178 23.255 4.62003C22.9951 4.51828 22.693 4.46741 22.3486 4.46741C21.6534 4.46741 21.0231 4.61367 20.4578 4.9062C19.8991 5.19237 19.402 5.57711 18.9667 6.06041C18.5314 6.53736 18.1545 7.08744 17.8361 7.71065C17.5243 8.33386 17.2644 8.98251 17.0564 9.6566C16.855 10.3307 16.7056 11.0079 16.6081 11.6884C16.5107 12.3625 16.4619 12.9889 16.4619 13.5676C16.4619 14.0318 16.4912 14.5024 16.5496 14.9793C16.6146 15.4499 16.7153 15.9046 16.8518 16.3434C16.9882 16.7822 17.1636 17.1924 17.3781 17.5739C17.5925 17.9618 17.8491 18.2989 18.148 18.5851C18.4534 18.8712 18.8042 19.097 19.2006 19.2623C19.5969 19.4277 20.0485 19.5103 20.5553 19.5103C20.9062 19.5103 21.244 19.4467 21.5689 19.3196C21.8938 19.1924 22.1992 19.0238 22.485 18.814C22.7709 18.6041 23.0276 18.3657 23.255 18.0986C23.4889 17.8315 23.6871 17.558 23.8495 17.2782L23.9665 17.3355C23.856 17.7297 23.6676 18.1176 23.4012 18.4992C23.1348 18.8808 22.8164 19.2178 22.4461 19.5103C22.0822 19.8092 21.6826 20.0477 21.2473 20.2258C20.8184 20.4102 20.3864 20.5024 19.951 20.5024C19.3728 20.5024 18.8497 20.4134 18.3819 20.2353C17.9141 20.0636 17.495 19.8219 17.1247 19.5103C16.7608 19.2051 16.4457 18.8426 16.1793 18.4229C15.9129 18.0095 15.692 17.5612 15.5165 17.0779C15.3411 16.5882 15.2112 16.0795 15.1267 15.5517C15.0422 15.0175 15 14.4833 15 13.9491C15 13.2496 15.0747 12.5183 15.2242 11.7552C15.3736 10.9921 15.5945 10.2417 15.8869 9.50397C16.1793 8.7663 16.5366 8.06677 16.959 7.40541C17.3878 6.73768 17.8784 6.15262 18.4306 5.65024C18.9829 5.14149 19.5937 4.74086 20.2629 4.44833C20.9387 4.14944 21.6664 4 22.4461 4C22.9334 4 23.3784 4.06995 23.7813 4.20986C24.1841 4.3434 24.5285 4.54054 24.8144 4.80127C25.1068 5.062 25.3309 5.38315 25.4869 5.76471C25.6428 6.1399 25.7208 6.57234 25.7208 7.062Z" fill="black"/>
<path d="M38.4882 4.07631C38.5272 4.07631 38.5662 4.08903 38.6052 4.11447C38.6442 4.13355 38.6636 4.1717 38.6636 4.22893C38.6636 4.27981 38.6474 4.33386 38.6149 4.3911C38.5889 4.44833 38.5532 4.50556 38.5077 4.5628C38.4622 4.62003 38.4167 4.67409 38.3713 4.72496C38.3258 4.77583 38.29 4.82035 38.2641 4.85851C37.9132 5.25278 37.5623 5.63434 37.2115 6.00318C36.8606 6.37202 36.513 6.75676 36.1686 7.15739C35.3175 8.14308 34.5085 9.15103 33.7418 10.1812C32.9751 11.2114 32.2214 12.2607 31.4807 13.3291C32.3709 14.7091 33.3487 16.0159 34.4143 17.2496C35.4799 18.4833 36.6235 19.6153 37.845 20.6455L37.728 20.8172C37.0718 20.4293 36.4285 19.9968 35.7983 19.5199C35.1745 19.0493 34.5638 18.5437 33.966 18.0032C33.3747 17.469 32.803 16.9062 32.2507 16.3148C31.6984 15.717 31.1754 15.1065 30.6816 14.4833C29.9668 15.5262 29.2619 16.566 28.5666 17.6025C27.8714 18.6391 27.1599 19.6725 26.4322 20.7027L26.2081 20.5405C26.8708 19.4277 27.5335 18.3211 28.1963 17.221C28.8655 16.1272 29.5477 15.027 30.243 13.9205C29.5023 12.9412 28.8428 11.9459 28.2645 10.9348C28.0501 10.5596 27.8292 10.1526 27.6018 9.71383C27.3809 9.26868 27.1794 8.81399 26.9975 8.34976C26.8221 7.87917 26.6759 7.40859 26.5589 6.938C26.442 6.46105 26.3835 6 26.3835 5.55485C26.3835 5.4531 26.3965 5.31955 26.4225 5.15421C26.455 4.98887 26.5005 4.82989 26.5589 4.67727C26.6239 4.51828 26.7019 4.38156 26.7928 4.26709C26.8903 4.15262 27.0073 4.09539 27.1437 4.09539C27.2217 4.09539 27.2866 4.11765 27.3386 4.16216C27.3906 4.20032 27.4328 4.25119 27.4653 4.31479C27.5043 4.37838 27.5335 4.44515 27.553 4.5151C27.5725 4.5787 27.5888 4.63275 27.6018 4.67727C27.9591 6.04452 28.4302 7.39905 29.015 8.74086C29.5997 10.0763 30.282 11.3831 31.0616 12.6614C31.6659 11.7329 32.2799 10.8235 32.9037 9.93323C33.5339 9.03657 34.1902 8.15262 34.8724 7.2814C34.9764 7.14149 35.1031 6.97933 35.2525 6.79491C35.4084 6.60413 35.5774 6.407 35.7593 6.2035C35.9412 5.99364 36.1329 5.78378 36.3343 5.57393C36.5357 5.36407 36.7372 5.17011 36.9386 4.99205C37.1465 4.80763 37.3479 4.64547 37.5428 4.50556C37.7378 4.36566 37.9197 4.26073 38.0886 4.19078C38.1471 4.15898 38.2088 4.13355 38.2738 4.11447C38.3453 4.08903 38.4167 4.07631 38.4882 4.07631Z" fill="black"/>
<path d="M58 21.5898C57.7791 21.7488 57.5387 21.8569 57.2788 21.9141C57.0254 21.9714 56.7687 22 56.5088 22C55.6187 22 54.826 21.8696 54.1308 21.6089C53.4421 21.3545 52.8345 21.0016 52.3082 20.5501C51.7885 20.0986 51.3434 19.5676 50.973 18.9571C50.6092 18.3466 50.3038 17.6884 50.0569 16.9825C49.8165 16.2766 49.6313 15.539 49.5014 14.7695C49.3714 14 49.2837 13.2337 49.2382 12.4706C49.1927 11.7011 49.1797 10.9507 49.1992 10.2194C49.2252 9.48172 49.2707 8.79809 49.3357 8.16852C49.2187 8.34022 49.0758 8.61367 48.9068 8.98887C48.7379 9.36407 48.5495 9.80286 48.3416 10.3052C48.1401 10.8076 47.929 11.3577 47.7081 11.9555C47.4872 12.5469 47.2662 13.1447 47.0453 13.7488C46.8309 14.3529 46.6197 14.9475 46.4118 15.5326C46.2104 16.1113 46.0285 16.6391 45.866 17.1161C45.7101 17.593 45.5737 17.9968 45.4567 18.3275C45.3463 18.6645 45.2748 18.8903 45.2423 19.0048C45.2163 19.0811 45.1806 19.1765 45.1351 19.2909C45.0961 19.4054 45.0441 19.5167 44.9791 19.6248C44.9207 19.7329 44.8492 19.8251 44.7647 19.9014C44.6868 19.9777 44.5958 20.0159 44.4918 20.0159C44.3749 20.0159 44.2774 19.9682 44.1995 19.8728C44.1215 19.7838 44.0565 19.6757 44.0045 19.5485C43.9591 19.4213 43.9201 19.2941 43.8876 19.1669C43.8616 19.0397 43.8421 18.938 43.8291 18.8617C43.7901 18.5946 43.7544 18.2576 43.7219 17.8506C43.6894 17.4436 43.6602 16.9921 43.6342 16.496C43.6147 16 43.5984 15.4722 43.5854 14.9126C43.5725 14.3466 43.5595 13.7806 43.5465 13.2146C43.54 12.6423 43.5335 12.0827 43.527 11.5358C43.527 10.9825 43.5237 10.4674 43.5172 9.99046C43.5172 9.50715 43.5172 9.07472 43.5172 8.69316C43.5172 8.31161 43.5172 8.00636 43.5172 7.77742C43.3743 8.09539 43.2021 8.49921 43.0007 8.98887C42.8058 9.47854 42.5913 10.0286 42.3574 10.6391C42.13 11.2496 41.8896 11.9078 41.6362 12.6137C41.3893 13.3132 41.1424 14.035 40.8955 14.779C40.6551 15.5231 40.4212 16.2734 40.1938 17.0302C39.9729 17.787 39.7747 18.5215 39.5993 19.2337C39.5798 19.2973 39.5538 19.3736 39.5213 19.4626C39.4953 19.558 39.4596 19.6471 39.4141 19.7297C39.3686 19.8124 39.3101 19.8824 39.2387 19.9396C39.1737 20.0032 39.0925 20.035 38.995 20.035C38.9041 20.035 38.8228 20.0064 38.7514 19.9491C38.6799 19.8919 38.6182 19.8219 38.5662 19.7393C38.5207 19.663 38.4817 19.5771 38.4492 19.4817C38.4232 19.3927 38.407 19.31 38.4005 19.2337C38.368 19.0747 38.3388 18.8998 38.3128 18.7091C38.2933 18.5183 38.2738 18.3211 38.2543 18.1176C38.2413 17.9205 38.2283 17.7234 38.2153 17.5262C38.2023 17.3355 38.1893 17.1574 38.1763 16.9921C38.1049 16.1208 38.0529 15.2591 38.0204 14.407C37.9944 13.5548 37.9814 12.6963 37.9814 11.8315C37.9814 10.9793 37.9944 10.1335 38.0204 9.29412C38.0529 8.45469 38.0984 7.60572 38.1568 6.74722C38.1763 6.4992 38.2056 6.22258 38.2446 5.91733C38.2835 5.60572 38.3583 5.3132 38.4687 5.03975C38.5857 4.7663 38.7514 4.53736 38.9658 4.35294C39.1867 4.16852 39.4856 4.07631 39.8624 4.07631C39.9534 4.07631 40.0314 4.09857 40.0963 4.14308C40.1613 4.18124 40.1938 4.25119 40.1938 4.35294V4.44833C40.1353 4.82989 40.0768 5.21145 40.0184 5.593C39.9599 5.9682 39.8982 6.35294 39.8332 6.74722C39.6772 8.01908 39.544 9.29094 39.4336 10.5628C39.3296 11.8283 39.2777 13.1033 39.2777 14.3879C39.2777 14.8903 39.2874 15.3863 39.3069 15.876C39.3264 16.3657 39.3621 16.8585 39.4141 17.3545C39.8624 15.9936 40.2555 14.7886 40.5934 13.7393C40.9377 12.69 41.2399 11.7711 41.4998 10.9825C41.7597 10.194 41.9773 9.52305 42.1528 8.96979C42.3347 8.41017 42.4874 7.94277 42.6108 7.56757C42.7343 7.19237 42.8317 6.89348 42.9032 6.67091C42.9747 6.44197 43.0332 6.26709 43.0786 6.14626C43.1241 6.01908 43.1566 5.92687 43.1761 5.86963C43.1956 5.8124 43.2151 5.76153 43.2346 5.71701C43.332 5.5008 43.4652 5.30684 43.6342 5.13514C43.8031 4.96343 44.0208 4.87758 44.2872 4.87758C44.4691 4.87758 44.6153 4.9221 44.7257 5.01113C44.8427 5.10016 44.9337 5.21145 44.9986 5.34499C45.0636 5.47854 45.1058 5.6248 45.1253 5.78378C45.1513 5.94277 45.1643 6.08903 45.1643 6.22258C45.1513 7.20827 45.1221 8.18442 45.0766 9.15103C45.0311 10.1113 44.9921 11.0652 44.9597 12.0127C44.9272 12.9603 44.9109 13.9014 44.9109 14.8362C44.9174 15.7711 44.9629 16.7027 45.0474 17.6312C45.3073 16.8808 45.5477 16.1749 45.7686 15.5135C45.9895 14.8458 46.1974 14.2099 46.3923 13.6057C46.5938 13.0016 46.7854 12.4197 46.9674 11.8601C47.1558 11.3005 47.3475 10.7472 47.5424 10.2003C47.7438 9.65342 47.9517 9.10652 48.1661 8.55962C48.3806 8.01272 48.6177 7.44992 48.8776 6.87122C48.9361 6.75676 49.0011 6.64229 49.0725 6.52782C49.144 6.407 49.2252 6.29889 49.3162 6.2035C49.4071 6.10811 49.5111 6.02862 49.6281 5.96502C49.745 5.90143 49.875 5.86963 50.0179 5.86963C50.2193 5.86963 50.3785 5.93323 50.4955 6.06041C50.6124 6.1876 50.7001 6.34022 50.7586 6.51828C50.8236 6.69634 50.8658 6.88394 50.8853 7.08108C50.9048 7.27186 50.9146 7.43402 50.9146 7.56757C50.9146 8.15262 50.8951 8.80127 50.8561 9.51351C50.8171 10.2194 50.7879 10.9539 50.7684 11.717C50.7554 12.4801 50.7651 13.2528 50.7976 14.035C50.8301 14.8172 50.9178 15.5739 51.0607 16.3052C51.2037 17.0366 51.4149 17.7202 51.6942 18.3561C51.9736 18.9921 52.3505 19.5453 52.8248 20.0159C53.2991 20.4928 53.8839 20.868 54.5791 21.1415C55.2808 21.4149 56.1222 21.5517 57.1034 21.5517C57.2528 21.5517 57.3957 21.539 57.5322 21.5135C57.6751 21.4944 57.8116 21.4563 57.9415 21.399L58 21.5898Z" fill="black"/>
<path d="M25.7208 7.062C25.7208 7.51987 25.633 7.94913 25.4576 8.34976C25.2822 8.7504 25.045 9.11924 24.7461 9.45628C24.4538 9.78696 24.1126 10.0859 23.7228 10.3529C23.333 10.62 22.9236 10.8458 22.4948 11.0302C22.066 11.2083 21.6274 11.3482 21.1791 11.4499C20.7372 11.5453 20.3149 11.593 19.9121 11.593H19.8536V11.4022C20.4383 11.3323 21.0036 11.1574 21.5494 10.8776C22.1017 10.5914 22.589 10.2321 23.0113 9.79968C23.4402 9.36725 23.7813 8.87758 24.0347 8.33068C24.2946 7.78378 24.4245 7.21145 24.4245 6.61367C24.4245 6.28935 24.379 5.99682 24.2881 5.73609C24.2036 5.469 24.0737 5.24324 23.8982 5.05882C23.7293 4.86804 23.5149 4.72178 23.255 4.62003C22.9951 4.51828 22.693 4.46741 22.3486 4.46741C21.6534 4.46741 21.0231 4.61367 20.4578 4.9062C19.8991 5.19237 19.402 5.57711 18.9667 6.06041C18.5314 6.53736 18.1545 7.08744 17.8361 7.71065C17.5243 8.33386 17.2644 8.98251 17.0564 9.6566C16.855 10.3307 16.7056 11.0079 16.6081 11.6884C16.5107 12.3625 16.4619 12.9889 16.4619 13.5676C16.4619 14.0318 16.4912 14.5024 16.5496 14.9793C16.6146 15.4499 16.7153 15.9046 16.8518 16.3434C16.9882 16.7822 17.1636 17.1924 17.3781 17.5739C17.5925 17.9618 17.8491 18.2989 18.148 18.5851C18.4534 18.8712 18.8042 19.097 19.2006 19.2623C19.5969 19.4277 20.0485 19.5103 20.5553 19.5103C20.9062 19.5103 21.244 19.4467 21.5689 19.3196C21.8938 19.1924 22.1992 19.0238 22.485 18.814C22.7709 18.6041 23.0276 18.3657 23.255 18.0986C23.4889 17.8315 23.6871 17.558 23.8495 17.2782L23.9665 17.3355C23.856 17.7297 23.6676 18.1176 23.4012 18.4992C23.1348 18.8808 22.8164 19.2178 22.4461 19.5103C22.0822 19.8092 21.6826 20.0477 21.2473 20.2258C20.8184 20.4102 20.3864 20.5024 19.951 20.5024C19.3728 20.5024 18.8497 20.4134 18.3819 20.2353C17.9141 20.0636 17.495 19.8219 17.1247 19.5103C16.7608 19.2051 16.4457 18.8426 16.1793 18.4229C15.9129 18.0095 15.692 17.5612 15.5165 17.0779C15.3411 16.5882 15.2112 16.0795 15.1267 15.5517C15.0422 15.0175 15 14.4833 15 13.9491C15 13.2496 15.0747 12.5183 15.2242 11.7552C15.3736 10.9921 15.5945 10.2417 15.8869 9.50397C16.1793 8.7663 16.5366 8.06677 16.959 7.40541C17.3878 6.73768 17.8784 6.15262 18.4306 5.65024C18.9829 5.14149 19.5937 4.74086 20.2629 4.44833C20.9387 4.14944 21.6664 4 22.4461 4C22.9334 4 23.3784 4.06995 23.7813 4.20986C24.1841 4.3434 24.5285 4.54054 24.8144 4.80127C25.1068 5.062 25.3309 5.38315 25.4869 5.76471C25.6428 6.1399 25.7208 6.57234 25.7208 7.062Z" stroke="black" mask="url(#path-1-outside-1_108_398)"/>
<path d="M38.4882 4.07631C38.5272 4.07631 38.5662 4.08903 38.6052 4.11447C38.6442 4.13355 38.6636 4.1717 38.6636 4.22893C38.6636 4.27981 38.6474 4.33386 38.6149 4.3911C38.5889 4.44833 38.5532 4.50556 38.5077 4.5628C38.4622 4.62003 38.4167 4.67409 38.3713 4.72496C38.3258 4.77583 38.29 4.82035 38.2641 4.85851C37.9132 5.25278 37.5623 5.63434 37.2115 6.00318C36.8606 6.37202 36.513 6.75676 36.1686 7.15739C35.3175 8.14308 34.5085 9.15103 33.7418 10.1812C32.9751 11.2114 32.2214 12.2607 31.4807 13.3291C32.3709 14.7091 33.3487 16.0159 34.4143 17.2496C35.4799 18.4833 36.6235 19.6153 37.845 20.6455L37.728 20.8172C37.0718 20.4293 36.4285 19.9968 35.7983 19.5199C35.1745 19.0493 34.5638 18.5437 33.966 18.0032C33.3747 17.469 32.803 16.9062 32.2507 16.3148C31.6984 15.717 31.1754 15.1065 30.6816 14.4833C29.9668 15.5262 29.2619 16.566 28.5666 17.6025C27.8714 18.6391 27.1599 19.6725 26.4322 20.7027L26.2081 20.5405C26.8708 19.4277 27.5335 18.3211 28.1963 17.221C28.8655 16.1272 29.5477 15.027 30.243 13.9205C29.5023 12.9412 28.8428 11.9459 28.2645 10.9348C28.0501 10.5596 27.8292 10.1526 27.6018 9.71383C27.3809 9.26868 27.1794 8.81399 26.9975 8.34976C26.8221 7.87917 26.6759 7.40859 26.5589 6.938C26.442 6.46105 26.3835 6 26.3835 5.55485C26.3835 5.4531 26.3965 5.31955 26.4225 5.15421C26.455 4.98887 26.5005 4.82989 26.5589 4.67727C26.6239 4.51828 26.7019 4.38156 26.7928 4.26709C26.8903 4.15262 27.0073 4.09539 27.1437 4.09539C27.2217 4.09539 27.2866 4.11765 27.3386 4.16216C27.3906 4.20032 27.4328 4.25119 27.4653 4.31479C27.5043 4.37838 27.5335 4.44515 27.553 4.5151C27.5725 4.5787 27.5888 4.63275 27.6018 4.67727C27.9591 6.04452 28.4302 7.39905 29.015 8.74086C29.5997 10.0763 30.282 11.3831 31.0616 12.6614C31.6659 11.7329 32.2799 10.8235 32.9037 9.93323C33.5339 9.03657 34.1902 8.15262 34.8724 7.2814C34.9764 7.14149 35.1031 6.97933 35.2525 6.79491C35.4084 6.60413 35.5774 6.407 35.7593 6.2035C35.9412 5.99364 36.1329 5.78378 36.3343 5.57393C36.5357 5.36407 36.7372 5.17011 36.9386 4.99205C37.1465 4.80763 37.3479 4.64547 37.5428 4.50556C37.7378 4.36566 37.9197 4.26073 38.0886 4.19078C38.1471 4.15898 38.2088 4.13355 38.2738 4.11447C38.3453 4.08903 38.4167 4.07631 38.4882 4.07631Z" stroke="black" mask="url(#path-1-outside-1_108_398)"/>
<path d="M58 21.5898C57.7791 21.7488 57.5387 21.8569 57.2788 21.9141C57.0254 21.9714 56.7687 22 56.5088 22C55.6187 22 54.826 21.8696 54.1308 21.6089C53.4421 21.3545 52.8345 21.0016 52.3082 20.5501C51.7885 20.0986 51.3434 19.5676 50.973 18.9571C50.6092 18.3466 50.3038 17.6884 50.0569 16.9825C49.8165 16.2766 49.6313 15.539 49.5014 14.7695C49.3714 14 49.2837 13.2337 49.2382 12.4706C49.1927 11.7011 49.1797 10.9507 49.1992 10.2194C49.2252 9.48172 49.2707 8.79809 49.3357 8.16852C49.2187 8.34022 49.0758 8.61367 48.9068 8.98887C48.7379 9.36407 48.5495 9.80286 48.3416 10.3052C48.1401 10.8076 47.929 11.3577 47.7081 11.9555C47.4872 12.5469 47.2662 13.1447 47.0453 13.7488C46.8309 14.3529 46.6197 14.9475 46.4118 15.5326C46.2104 16.1113 46.0285 16.6391 45.866 17.1161C45.7101 17.593 45.5737 17.9968 45.4567 18.3275C45.3463 18.6645 45.2748 18.8903 45.2423 19.0048C45.2163 19.0811 45.1806 19.1765 45.1351 19.2909C45.0961 19.4054 45.0441 19.5167 44.9791 19.6248C44.9207 19.7329 44.8492 19.8251 44.7647 19.9014C44.6868 19.9777 44.5958 20.0159 44.4918 20.0159C44.3749 20.0159 44.2774 19.9682 44.1995 19.8728C44.1215 19.7838 44.0565 19.6757 44.0045 19.5485C43.9591 19.4213 43.9201 19.2941 43.8876 19.1669C43.8616 19.0397 43.8421 18.938 43.8291 18.8617C43.7901 18.5946 43.7544 18.2576 43.7219 17.8506C43.6894 17.4436 43.6602 16.9921 43.6342 16.496C43.6147 16 43.5984 15.4722 43.5854 14.9126C43.5725 14.3466 43.5595 13.7806 43.5465 13.2146C43.54 12.6423 43.5335 12.0827 43.527 11.5358C43.527 10.9825 43.5237 10.4674 43.5172 9.99046C43.5172 9.50715 43.5172 9.07472 43.5172 8.69316C43.5172 8.31161 43.5172 8.00636 43.5172 7.77742C43.3743 8.09539 43.2021 8.49921 43.0007 8.98887C42.8058 9.47854 42.5913 10.0286 42.3574 10.6391C42.13 11.2496 41.8896 11.9078 41.6362 12.6137C41.3893 13.3132 41.1424 14.035 40.8955 14.779C40.6551 15.5231 40.4212 16.2734 40.1938 17.0302C39.9729 17.787 39.7747 18.5215 39.5993 19.2337C39.5798 19.2973 39.5538 19.3736 39.5213 19.4626C39.4953 19.558 39.4596 19.6471 39.4141 19.7297C39.3686 19.8124 39.3101 19.8824 39.2387 19.9396C39.1737 20.0032 39.0925 20.035 38.995 20.035C38.9041 20.035 38.8228 20.0064 38.7514 19.9491C38.6799 19.8919 38.6182 19.8219 38.5662 19.7393C38.5207 19.663 38.4817 19.5771 38.4492 19.4817C38.4232 19.3927 38.407 19.31 38.4005 19.2337C38.368 19.0747 38.3388 18.8998 38.3128 18.7091C38.2933 18.5183 38.2738 18.3211 38.2543 18.1176C38.2413 17.9205 38.2283 17.7234 38.2153 17.5262C38.2023 17.3355 38.1893 17.1574 38.1763 16.9921C38.1049 16.1208 38.0529 15.2591 38.0204 14.407C37.9944 13.5548 37.9814 12.6963 37.9814 11.8315C37.9814 10.9793 37.9944 10.1335 38.0204 9.29412C38.0529 8.45469 38.0984 7.60572 38.1568 6.74722C38.1763 6.4992 38.2056 6.22258 38.2446 5.91733C38.2835 5.60572 38.3583 5.3132 38.4687 5.03975C38.5857 4.7663 38.7514 4.53736 38.9658 4.35294C39.1867 4.16852 39.4856 4.07631 39.8624 4.07631C39.9534 4.07631 40.0314 4.09857 40.0963 4.14308C40.1613 4.18124 40.1938 4.25119 40.1938 4.35294V4.44833C40.1353 4.82989 40.0768 5.21145 40.0184 5.593C39.9599 5.9682 39.8982 6.35294 39.8332 6.74722C39.6772 8.01908 39.544 9.29094 39.4336 10.5628C39.3296 11.8283 39.2777 13.1033 39.2777 14.3879C39.2777 14.8903 39.2874 15.3863 39.3069 15.876C39.3264 16.3657 39.3621 16.8585 39.4141 17.3545C39.8624 15.9936 40.2555 14.7886 40.5934 13.7393C40.9377 12.69 41.2399 11.7711 41.4998 10.9825C41.7597 10.194 41.9773 9.52305 42.1528 8.96979C42.3347 8.41017 42.4874 7.94277 42.6108 7.56757C42.7343 7.19237 42.8317 6.89348 42.9032 6.67091C42.9747 6.44197 43.0332 6.26709 43.0786 6.14626C43.1241 6.01908 43.1566 5.92687 43.1761 5.86963C43.1956 5.8124 43.2151 5.76153 43.2346 5.71701C43.332 5.5008 43.4652 5.30684 43.6342 5.13514C43.8031 4.96343 44.0208 4.87758 44.2872 4.87758C44.4691 4.87758 44.6153 4.9221 44.7257 5.01113C44.8427 5.10016 44.9337 5.21145 44.9986 5.34499C45.0636 5.47854 45.1058 5.6248 45.1253 5.78378C45.1513 5.94277 45.1643 6.08903 45.1643 6.22258C45.1513 7.20827 45.1221 8.18442 45.0766 9.15103C45.0311 10.1113 44.9921 11.0652 44.9597 12.0127C44.9272 12.9603 44.9109 13.9014 44.9109 14.8362C44.9174 15.7711 44.9629 16.7027 45.0474 17.6312C45.3073 16.8808 45.5477 16.1749 45.7686 15.5135C45.9895 14.8458 46.1974 14.2099 46.3923 13.6057C46.5938 13.0016 46.7854 12.4197 46.9674 11.8601C47.1558 11.3005 47.3475 10.7472 47.5424 10.2003C47.7438 9.65342 47.9517 9.10652 48.1661 8.55962C48.3806 8.01272 48.6177 7.44992 48.8776 6.87122C48.9361 6.75676 49.0011 6.64229 49.0725 6.52782C49.144 6.407 49.2252 6.29889 49.3162 6.2035C49.4071 6.10811 49.5111 6.02862 49.6281 5.96502C49.745 5.90143 49.875 5.86963 50.0179 5.86963C50.2193 5.86963 50.3785 5.93323 50.4955 6.06041C50.6124 6.1876 50.7001 6.34022 50.7586 6.51828C50.8236 6.69634 50.8658 6.88394 50.8853 7.08108C50.9048 7.27186 50.9146 7.43402 50.9146 7.56757C50.9146 8.15262 50.8951 8.80127 50.8561 9.51351C50.8171 10.2194 50.7879 10.9539 50.7684 11.717C50.7554 12.4801 50.7651 13.2528 50.7976 14.035C50.8301 14.8172 50.9178 15.5739 51.0607 16.3052C51.2037 17.0366 51.4149 17.7202 51.6942 18.3561C51.9736 18.9921 52.3505 19.5453 52.8248 20.0159C53.2991 20.4928 53.8839 20.868 54.5791 21.1415C55.2808 21.4149 56.1222 21.5517 57.1034 21.5517C57.2528 21.5517 57.3957 21.539 57.5322 21.5135C57.6751 21.4944 57.8116 21.4563 57.9415 21.399L58 21.5898Z" stroke="black" mask="url(#path-1-outside-1_108_398)"/>
<path d="M5.5 8L1 12.5L5.5 17" stroke="black"/>
<rect x="67" width="58" height="25" rx="12.5" fill="#EEEEF1"/>
<path d="M83.2727 10.4545L80.8523 17H79.8295L77.4091 10.4545H78.5L80.3068 15.6705H80.375L82.1818 10.4545H83.2727ZM84.6001 17V10.4545H85.6058V17H84.6001ZM85.1115 9.36364C84.9155 9.36364 84.7464 9.29688 84.6044 9.16335C84.4652 9.02983 84.3956 8.86932 84.3956 8.68182C84.3956 8.49432 84.4652 8.33381 84.6044 8.20028C84.7464 8.06676 84.9155 8 85.1115 8C85.3075 8 85.4751 8.06676 85.6143 8.20028C85.7564 8.33381 85.8274 8.49432 85.8274 8.68182C85.8274 8.86932 85.7564 9.02983 85.6143 9.16335C85.4751 9.29688 85.3075 9.36364 85.1115 9.36364ZM90.1921 17.1364C89.5614 17.1364 89.0174 16.9972 88.56 16.7188C88.1055 16.4375 87.7546 16.0455 87.5075 15.5426C87.2631 15.0369 87.141 14.4489 87.141 13.7784C87.141 13.108 87.2631 12.517 87.5075 12.0057C87.7546 11.4915 88.0984 11.0909 88.5387 10.804C88.9819 10.5142 89.4989 10.3693 90.0898 10.3693C90.4308 10.3693 90.7674 10.4261 91.0998 10.5398C91.4322 10.6534 91.7347 10.8381 92.0075 11.0938C92.2802 11.3466 92.4975 11.6818 92.6594 12.0994C92.8214 12.517 92.9023 13.0312 92.9023 13.642V14.0682H87.8569V13.1989H91.8796C91.8796 12.8295 91.8058 12.5 91.658 12.2102C91.5131 11.9205 91.3058 11.6918 91.0359 11.5241C90.7688 11.3565 90.4535 11.2727 90.0898 11.2727C89.6893 11.2727 89.3427 11.3722 89.0501 11.571C88.7603 11.767 88.5373 12.0227 88.381 12.3381C88.2248 12.6534 88.1467 12.9915 88.1467 13.3523V13.9318C88.1467 14.4261 88.2319 14.8452 88.4023 15.1889C88.5756 15.5298 88.8157 15.7898 89.1225 15.9688C89.4293 16.1449 89.7859 16.233 90.1921 16.233C90.4563 16.233 90.695 16.196 90.908 16.1222C91.1239 16.0455 91.31 15.9318 91.4663 15.7812C91.6225 15.6278 91.7433 15.4375 91.8285 15.2102L92.8001 15.483C92.6978 15.8125 92.5259 16.1023 92.2844 16.3523C92.043 16.5994 91.7447 16.7926 91.3896 16.9318C91.0344 17.0682 90.6353 17.1364 90.1921 17.1364ZM95.9151 17L93.9208 10.4545H94.9776L96.3924 15.4659H96.4606L97.8583 10.4545H98.9322L100.313 15.4489H100.381L101.796 10.4545H102.853L100.858 17H99.8697L98.4379 11.9716H98.3356L96.9038 17H95.9151ZM106.704 17.1364C106.073 17.1364 105.529 16.9972 105.072 16.7188C104.617 16.4375 104.266 16.0455 104.019 15.5426C103.775 15.0369 103.653 14.4489 103.653 13.7784C103.653 13.108 103.775 12.517 104.019 12.0057C104.266 11.4915 104.61 11.0909 105.05 10.804C105.494 10.5142 106.011 10.3693 106.602 10.3693C106.942 10.3693 107.279 10.4261 107.612 10.5398C107.944 10.6534 108.246 10.8381 108.519 11.0938C108.792 11.3466 109.009 11.6818 109.171 12.0994C109.333 12.517 109.414 13.0312 109.414 13.642V14.0682H104.369V13.1989H108.391C108.391 12.8295 108.317 12.5 108.17 12.2102C108.025 11.9205 107.817 11.6918 107.548 11.5241C107.281 11.3565 106.965 11.2727 106.602 11.2727C106.201 11.2727 105.854 11.3722 105.562 11.571C105.272 11.767 105.049 12.0227 104.893 12.3381C104.737 12.6534 104.658 12.9915 104.658 13.3523V13.9318C104.658 14.4261 104.744 14.8452 104.914 15.1889C105.087 15.5298 105.327 15.7898 105.634 15.9688C105.941 16.1449 106.298 16.233 106.704 16.233C106.968 16.233 107.207 16.196 107.42 16.1222C107.636 16.0455 107.822 15.9318 107.978 15.7812C108.134 15.6278 108.255 15.4375 108.34 15.2102L109.312 15.483C109.21 15.8125 109.038 16.1023 108.796 16.3523C108.555 16.5994 108.256 16.7926 107.901 16.9318C107.546 17.0682 107.147 17.1364 106.704 17.1364ZM110.944 17V10.4545H111.915V11.4432H111.984C112.103 11.1193 112.319 10.8565 112.631 10.6548C112.944 10.4531 113.296 10.3523 113.688 10.3523C113.762 10.3523 113.854 10.3537 113.965 10.3565C114.076 10.3594 114.16 10.3636 114.217 10.3693V11.392C114.183 11.3835 114.104 11.3707 113.982 11.3537C113.863 11.3338 113.737 11.3239 113.603 11.3239C113.285 11.3239 113.001 11.3906 112.751 11.5241C112.504 11.6548 112.308 11.8366 112.163 12.0696C112.021 12.2997 111.95 12.5625 111.95 12.858V17H110.944Z" fill="black"/>
</svg>
