<svg width="31" height="31" viewBox="0 0 31 31" fill="none" xmlns="http://www.w3.org/2000/svg">
<path fill-rule="evenodd" clip-rule="evenodd" d="M20.3 28H22.5C25.2614 28 27.5 25.7614 27.5 23V20.8H26.1V23C26.1 24.9882 24.4882 26.6 22.5 26.6H20.3V28ZM20.3 5.4H22.5C24.4882 5.4 26.1 7.01177 26.1 9V11.2H27.5V9C27.5 6.23858 25.2614 4 22.5 4H20.3V5.4ZM10.7 4V5.4H8.5C6.51177 5.4 4.9 7.01177 4.9 9V11.2H3.5V9C3.5 6.23858 5.73858 4 8.5 4H10.7ZM10.7 26.6V28H8.5C5.73858 28 3.5 25.7614 3.5 23V20.8H4.9V23C4.9 24.9882 6.51177 26.6 8.5 26.6H10.7Z" fill="black"/>
<path fill-rule="evenodd" clip-rule="evenodd" d="M16.4995 20.5001C19.261 20.5001 21.4996 18.2615 21.4996 15.5C21.4996 12.7386 19.261 10.5 16.4995 10.5C13.7381 10.5 11.4995 12.7386 11.4995 15.5C11.4995 18.2615 13.7381 20.5001 16.4995 20.5001ZM16.4995 22.0001C20.0894 22.0001 22.9996 19.0899 22.9996 15.5C22.9996 11.9102 20.0894 9 16.4995 9C12.9097 9 9.99951 11.9102 9.99951 15.5C9.99951 19.0899 12.9097 22.0001 16.4995 22.0001Z" fill="black"/>
<path fill-rule="evenodd" clip-rule="evenodd" d="M7.96973 23.4696L11.9697 19.4696L13.0304 20.5303L9.03039 24.5303L7.96973 23.4696Z" fill="black"/>
</svg>
